<?xml version="1.0" encoding="UTF-8" standalone="no"?>
<!DOCTYPE svg PUBLIC "-//W3C//DTD SVG 1.1//EN"
 "http://www.w3.org/Graphics/SVG/1.1/DTD/svg11.dtd">
<!-- Generated by graphviz version 2.44.1 (20200629.0846)
 -->
<!-- Pages: 1 -->
<svg width="1545pt" height="1030pt"
 viewBox="0.00 0.00 1545.00 1030.00" xmlns="http://www.w3.org/2000/svg" xmlns:xlink="http://www.w3.org/1999/xlink">
<g id="graph0" class="graph" transform="scale(1 1) rotate(0) translate(4 1026)">
<polygon fill="white" stroke="transparent" points="-4,4 -4,-1026 1541,-1026 1541,4 -4,4"/>
<!-- Ambiguity -->
<g id="node1" class="node">
<title>Ambiguity</title>
<polygon fill="none" stroke="black" points="978.5,-1022 901.5,-1022 901.5,-986 978.5,-986 978.5,-1022"/>
<text text-anchor="middle" x="940" y="-1000.3" font-family="firacode" font-size="14.00">Ambiguity</text>
</g>
<!-- Informal Domain -->
<g id="node2" class="node">
<title>Informal Domain</title>
<polygon fill="none" stroke="black" points="1178,-1022 1061,-1022 1061,-986 1178,-986 1178,-1022"/>
<text text-anchor="middle" x="1119.5" y="-1000.3" font-family="firacode" font-size="14.00">Informal Domain</text>
</g>
<!-- Ambiguity&#45;&gt;Informal Domain -->
<g id="edge1" class="edge">
<title>Ambiguity&#45;&gt;Informal Domain</title>
<path fill="none" stroke="black" d="M978.64,-1004C999.57,-1004 1026.24,-1004 1050.68,-1004"/>
<polygon fill="black" stroke="black" points="1050.99,-1007.5 1060.99,-1004 1050.99,-1000.5 1050.99,-1007.5"/>
</g>
<!-- Designation -->
<g id="node3" class="node">
<title>Designation</title>
<polygon fill="none" stroke="black" points="1163.5,-652 1075.5,-652 1075.5,-616 1163.5,-616 1163.5,-652"/>
<text text-anchor="middle" x="1119.5" y="-630.3" font-family="firacode" font-size="14.00">Designation</text>
</g>
<!-- Ambiguity&#45;&gt;Designation -->
<g id="edge2" class="edge">
<title>Ambiguity&#45;&gt;Designation</title>
<path fill="none" stroke="black" d="M978.72,-997.45C991.73,-993.49 1005.42,-987.14 1015,-977 1020.62,-971.05 1087.01,-742.87 1110.4,-662.04"/>
<polygon fill="black" stroke="black" points="1113.87,-662.65 1113.28,-652.07 1107.14,-660.71 1113.87,-662.65"/>
</g>
<!-- Application Domain -->
<g id="node4" class="node">
<title>Application Domain</title>
<polygon fill="none" stroke="black" points="1186.5,-136 1052.5,-136 1052.5,-100 1186.5,-100 1186.5,-136"/>
<text text-anchor="middle" x="1119.5" y="-114.3" font-family="firacode" font-size="14.00">Application Domain</text>
</g>
<!-- Problem Frame -->
<g id="node5" class="node">
<title>Problem Frame</title>
<polygon fill="none" stroke="black" points="1350,-190 1239,-190 1239,-154 1350,-154 1350,-190"/>
<text text-anchor="middle" x="1294.5" y="-168.3" font-family="firacode" font-size="14.00">Problem Frame</text>
</g>
<!-- Application Domain&#45;&gt;Problem Frame -->
<g id="edge3" class="edge">
<title>Application Domain&#45;&gt;Problem Frame</title>
<path fill="none" stroke="black" d="M1178.59,-136.13C1194.83,-141.2 1212.59,-146.74 1229.17,-151.92"/>
<polygon fill="black" stroke="black" points="1228.19,-155.28 1238.78,-154.92 1230.28,-148.6 1228.19,-155.28"/>
</g>
<!-- Method -->
<g id="node6" class="node">
<title>Method</title>
<polygon fill="none" stroke="black" points="1325.5,-136 1263.5,-136 1263.5,-100 1325.5,-100 1325.5,-136"/>
<text text-anchor="middle" x="1294.5" y="-114.3" font-family="firacode" font-size="14.00">Method</text>
</g>
<!-- Application Domain&#45;&gt;Method -->
<g id="edge4" class="edge">
<title>Application Domain&#45;&gt;Method</title>
<path fill="none" stroke="black" d="M1186.89,-118C1209.18,-118 1233.36,-118 1253.05,-118"/>
<polygon fill="black" stroke="black" points="1253.19,-121.5 1263.19,-118 1253.19,-114.5 1253.19,-121.5"/>
</g>
<!-- Requirement -->
<g id="node7" class="node">
<title>Requirement</title>
<polygon fill="none" stroke="black" points="1516.5,-82 1421.5,-82 1421.5,-46 1516.5,-46 1516.5,-82"/>
<text text-anchor="middle" x="1469" y="-60.3" font-family="firacode" font-size="14.00">Requirement</text>
</g>
<!-- Method&#45;&gt;Requirement -->
<g id="edge5" class="edge">
<title>Method&#45;&gt;Requirement</title>
<path fill="none" stroke="black" d="M1325.55,-108.59C1349.21,-101.19 1382.86,-90.65 1411.52,-81.68"/>
<polygon fill="black" stroke="black" points="1412.92,-84.91 1421.42,-78.58 1410.83,-78.23 1412.92,-84.91"/>
</g>
<!-- Multiframe Problem -->
<g id="node8" class="node">
<title>Multiframe Problem</title>
<polygon fill="none" stroke="black" points="1537,-136 1401,-136 1401,-100 1537,-100 1537,-136"/>
<text text-anchor="middle" x="1469" y="-114.3" font-family="firacode" font-size="14.00">Multiframe Problem</text>
</g>
<!-- Method&#45;&gt;Multiframe Problem -->
<g id="edge6" class="edge">
<title>Method&#45;&gt;Multiframe Problem</title>
<path fill="none" stroke="black" d="M1325.55,-118C1343.63,-118 1367.54,-118 1390.6,-118"/>
<polygon fill="black" stroke="black" points="1390.76,-121.5 1400.76,-118 1390.76,-114.5 1390.76,-121.5"/>
</g>
<!-- Problem Context -->
<g id="node9" class="node">
<title>Problem Context</title>
<polygon fill="none" stroke="black" points="1528,-213 1410,-213 1410,-177 1528,-177 1528,-213"/>
<text text-anchor="middle" x="1469" y="-191.3" font-family="firacode" font-size="14.00">Problem Context</text>
</g>
<!-- Method&#45;&gt;Problem Context -->
<g id="edge7" class="edge">
<title>Method&#45;&gt;Problem Context</title>
<path fill="none" stroke="black" d="M1325.82,-129.17C1338.08,-133.84 1352.3,-139.46 1365,-145 1384.39,-153.46 1405.47,-163.53 1423.47,-172.4"/>
<polygon fill="black" stroke="black" points="1422.07,-175.62 1432.58,-176.92 1425.18,-169.34 1422.07,-175.62"/>
</g>
<!-- Arborcide -->
<g id="node10" class="node">
<title>Arborcide</title>
<polygon fill="none" stroke="black" points="111.5,-263 37.5,-263 37.5,-227 111.5,-227 111.5,-263"/>
<text text-anchor="middle" x="74.5" y="-241.3" font-family="firacode" font-size="14.00">Arborcide</text>
</g>
<!-- Bridges of Konigsberg -->
<g id="node11" class="node">
<title>Bridges of Konigsberg</title>
<polygon fill="none" stroke="black" points="149,-317 0,-317 0,-281 149,-281 149,-317"/>
<text text-anchor="middle" x="74.5" y="-295.3" font-family="firacode" font-size="14.00">Bridges of Konigsberg</text>
</g>
<!-- Brilliance -->
<g id="node12" class="node">
<title>Brilliance</title>
<polygon fill="none" stroke="black" points="110,-371 39,-371 39,-335 110,-335 110,-371"/>
<text text-anchor="middle" x="74.5" y="-349.3" font-family="firacode" font-size="14.00">Brilliance</text>
</g>
<!-- Calendar -->
<g id="node13" class="node">
<title>Calendar</title>
<polygon fill="none" stroke="black" points="461.5,-236 390.5,-236 390.5,-200 461.5,-200 461.5,-236"/>
<text text-anchor="middle" x="426" y="-214.3" font-family="firacode" font-size="14.00">Calendar</text>
</g>
<!-- Problem Complexity -->
<g id="node14" class="node">
<title>Problem Complexity</title>
<polygon fill="none" stroke="black" points="657,-236 518,-236 518,-200 657,-200 657,-236"/>
<text text-anchor="middle" x="587.5" y="-214.3" font-family="firacode" font-size="14.00">Problem Complexity</text>
</g>
<!-- Calendar&#45;&gt;Problem Complexity -->
<g id="edge8" class="edge">
<title>Calendar&#45;&gt;Problem Complexity</title>
<path fill="none" stroke="black" d="M461.61,-218C475.27,-218 491.56,-218 507.79,-218"/>
<polygon fill="black" stroke="black" points="507.87,-221.5 517.87,-218 507.87,-214.5 507.87,-221.5"/>
</g>
<!-- Tree Diagram -->
<g id="node15" class="node">
<title>Tree Diagram</title>
<polygon fill="none" stroke="black" points="637.5,-182 537.5,-182 537.5,-146 637.5,-146 637.5,-182"/>
<text text-anchor="middle" x="587.5" y="-160.3" font-family="firacode" font-size="14.00">Tree Diagram</text>
</g>
<!-- Calendar&#45;&gt;Tree Diagram -->
<g id="edge9" class="edge">
<title>Calendar&#45;&gt;Tree Diagram</title>
<path fill="none" stroke="black" d="M461.61,-206.28C480.92,-199.74 505.5,-191.42 527.74,-183.89"/>
<polygon fill="black" stroke="black" points="529.09,-187.13 537.44,-180.61 526.84,-180.5 529.09,-187.13"/>
</g>
<!-- Classification -->
<g id="node16" class="node">
<title>Classification</title>
<polygon fill="none" stroke="black" points="809,-941 713,-941 713,-905 809,-905 809,-941"/>
<text text-anchor="middle" x="761" y="-919.3" font-family="firacode" font-size="14.00">Classification</text>
</g>
<!-- Events and Interval -->
<g id="node17" class="node">
<title>Events and Interval</title>
<polygon fill="none" stroke="black" points="1006,-968 874,-968 874,-932 1006,-932 1006,-968"/>
<text text-anchor="middle" x="940" y="-946.3" font-family="firacode" font-size="14.00">Events and Interval</text>
</g>
<!-- Classification&#45;&gt;Events and Interval -->
<g id="edge10" class="edge">
<title>Classification&#45;&gt;Events and Interval</title>
<path fill="none" stroke="black" d="M809.43,-930.24C826.11,-932.78 845.28,-935.7 863.68,-938.51"/>
<polygon fill="black" stroke="black" points="863.39,-942.01 873.8,-940.05 864.44,-935.09 863.39,-942.01"/>
</g>
<!-- Definition -->
<g id="node18" class="node">
<title>Definition</title>
<polygon fill="none" stroke="black" points="976.5,-914 903.5,-914 903.5,-878 976.5,-878 976.5,-914"/>
<text text-anchor="middle" x="940" y="-892.3" font-family="firacode" font-size="14.00">Definition</text>
</g>
<!-- Classification&#45;&gt;Definition -->
<g id="edge11" class="edge">
<title>Classification&#45;&gt;Definition</title>
<path fill="none" stroke="black" d="M809.43,-915.76C835.47,-911.79 867.6,-906.89 893.35,-902.96"/>
<polygon fill="black" stroke="black" points="893.88,-906.42 903.23,-901.46 892.82,-899.5 893.88,-906.42"/>
</g>
<!-- Definition&#45;&gt;Designation -->
<g id="edge12" class="edge">
<title>Definition&#45;&gt;Designation</title>
<path fill="none" stroke="black" d="M976.55,-889.26C989.92,-885.24 1004.42,-878.91 1015,-869 1076.52,-811.35 1103.63,-710.62 1113.6,-661.93"/>
<polygon fill="black" stroke="black" points="1117.04,-662.58 1115.52,-652.09 1110.17,-661.23 1117.04,-662.58"/>
</g>
<!-- Narrow Bridge -->
<g id="node19" class="node">
<title>Narrow Bridge</title>
<polygon fill="none" stroke="black" points="1171,-914 1068,-914 1068,-878 1171,-878 1171,-914"/>
<text text-anchor="middle" x="1119.5" y="-892.3" font-family="firacode" font-size="14.00">Narrow Bridge</text>
</g>
<!-- Definition&#45;&gt;Narrow Bridge -->
<g id="edge13" class="edge">
<title>Definition&#45;&gt;Narrow Bridge</title>
<path fill="none" stroke="black" d="M976.92,-896C1000.09,-896 1030.83,-896 1057.73,-896"/>
<polygon fill="black" stroke="black" points="1057.84,-899.5 1067.84,-896 1057.84,-892.5 1057.84,-899.5"/>
</g>
<!-- Composition -->
<g id="node20" class="node">
<title>Composition</title>
<polygon fill="none" stroke="black" points="472,-182 380,-182 380,-146 472,-146 472,-182"/>
<text text-anchor="middle" x="426" y="-160.3" font-family="firacode" font-size="14.00">Composition</text>
</g>
<!-- Composition&#45;&gt;Application Domain -->
<g id="edge14" class="edge">
<title>Composition&#45;&gt;Application Domain</title>
<path fill="none" stroke="black" d="M472.3,-148.07C486.72,-143.67 502.87,-139.44 518,-137 704.42,-106.91 927.48,-109.88 1042.14,-114.19"/>
<polygon fill="black" stroke="black" points="1042.09,-117.69 1052.22,-114.59 1042.36,-110.7 1042.09,-117.69"/>
</g>
<!-- Composition&#45;&gt;Tree Diagram -->
<g id="edge15" class="edge">
<title>Composition&#45;&gt;Tree Diagram</title>
<path fill="none" stroke="black" d="M472.28,-164C489.37,-164 509.08,-164 527.27,-164"/>
<polygon fill="black" stroke="black" points="527.48,-167.5 537.48,-164 527.48,-160.5 527.48,-167.5"/>
</g>
<!-- Connection Domain -->
<g id="node21" class="node">
<title>Connection Domain</title>
<polygon fill="none" stroke="black" points="829,-336 693,-336 693,-300 829,-300 829,-336"/>
<text text-anchor="middle" x="761" y="-314.3" font-family="firacode" font-size="14.00">Connection Domain</text>
</g>
<!-- Connection Frame -->
<g id="node22" class="node">
<title>Connection Frame</title>
<polygon fill="none" stroke="black" points="1004,-336 876,-336 876,-300 1004,-300 1004,-336"/>
<text text-anchor="middle" x="940" y="-314.3" font-family="firacode" font-size="14.00">Connection Frame</text>
</g>
<!-- Connection Domain&#45;&gt;Connection Frame -->
<g id="edge16" class="edge">
<title>Connection Domain&#45;&gt;Connection Frame</title>
<path fill="none" stroke="black" d="M829.17,-311.43C841.16,-311.22 853.72,-311.2 865.87,-311.34"/>
<polygon fill="black" stroke="black" points="865.91,-314.84 875.96,-311.5 866.02,-307.84 865.91,-314.84"/>
</g>
<!-- Connection Frame&#45;&gt;Connection Domain -->
<g id="edge17" class="edge">
<title>Connection Frame&#45;&gt;Connection Domain</title>
<path fill="none" stroke="black" d="M875.96,-324.5C864.11,-324.74 851.59,-324.81 839.35,-324.7"/>
<polygon fill="black" stroke="black" points="839.21,-321.2 829.17,-324.57 839.12,-328.2 839.21,-321.2"/>
</g>
<!-- Shared Phenomena -->
<g id="node23" class="node">
<title>Shared Phenomena</title>
<polygon fill="none" stroke="black" points="1188,-336 1051,-336 1051,-300 1188,-300 1188,-336"/>
<text text-anchor="middle" x="1119.5" y="-314.3" font-family="firacode" font-size="14.00">Shared Phenomena</text>
</g>
<!-- Connection Frame&#45;&gt;Shared Phenomena -->
<g id="edge18" class="edge">
<title>Connection Frame&#45;&gt;Shared Phenomena</title>
<path fill="none" stroke="black" d="M1004.08,-318C1015.91,-318 1028.41,-318 1040.63,-318"/>
<polygon fill="black" stroke="black" points="1040.81,-321.5 1050.81,-318 1040.81,-314.5 1040.81,-321.5"/>
</g>
<!-- Context Diagram -->
<g id="node24" class="node">
<title>Context Diagram</title>
<polygon fill="none" stroke="black" points="647,-290 528,-290 528,-254 647,-254 647,-290"/>
<text text-anchor="middle" x="587.5" y="-268.3" font-family="firacode" font-size="14.00">Context Diagram</text>
</g>
<!-- Context Diagram&#45;&gt;Connection Domain -->
<g id="edge19" class="edge">
<title>Context Diagram&#45;&gt;Connection Domain</title>
<path fill="none" stroke="black" d="M647.04,-287.7C658.68,-290.82 671.06,-294.15 683.21,-297.4"/>
<polygon fill="black" stroke="black" points="682.31,-300.78 692.87,-299.99 684.12,-294.02 682.31,-300.78"/>
</g>
<!-- Dataflow Diagram -->
<g id="node25" class="node">
<title>Dataflow Diagram</title>
<polygon fill="none" stroke="black" points="823.5,-390 698.5,-390 698.5,-354 823.5,-354 823.5,-390"/>
<text text-anchor="middle" x="761" y="-368.3" font-family="firacode" font-size="14.00">Dataflow Diagram</text>
</g>
<!-- Context Diagram&#45;&gt;Dataflow Diagram -->
<g id="edge20" class="edge">
<title>Context Diagram&#45;&gt;Dataflow Diagram</title>
<path fill="none" stroke="black" d="M611.18,-290.11C631.72,-305.95 663.23,-328.87 693,-345 696.01,-346.63 699.15,-348.22 702.34,-349.76"/>
<polygon fill="black" stroke="black" points="700.9,-352.96 711.45,-353.96 703.83,-346.6 700.9,-352.96"/>
</g>
<!-- Domain -->
<g id="node26" class="node">
<title>Domain</title>
<polygon fill="none" stroke="black" points="793,-228 729,-228 729,-192 793,-192 793,-228"/>
<text text-anchor="middle" x="761" y="-206.3" font-family="firacode" font-size="14.00">Domain</text>
</g>
<!-- Context Diagram&#45;&gt;Domain -->
<g id="edge21" class="edge">
<title>Context Diagram&#45;&gt;Domain</title>
<path fill="none" stroke="black" d="M638.57,-253.9C664.2,-244.63 695.01,-233.49 719.19,-224.76"/>
<polygon fill="black" stroke="black" points="720.55,-227.98 728.77,-221.29 718.17,-221.4 720.55,-227.98"/>
</g>
<!-- Context -->
<g id="node27" class="node">
<title>Context</title>
<polygon fill="none" stroke="black" points="792.5,-282 729.5,-282 729.5,-246 792.5,-246 792.5,-282"/>
<text text-anchor="middle" x="761" y="-260.3" font-family="firacode" font-size="14.00">Context</text>
</g>
<!-- Context Diagram&#45;&gt;Context -->
<g id="edge22" class="edge">
<title>Context Diagram&#45;&gt;Context</title>
<path fill="none" stroke="black" d="M647.04,-269.27C670.72,-268.16 697.5,-266.92 719.03,-265.91"/>
<polygon fill="black" stroke="black" points="719.32,-269.4 729.14,-265.44 718.99,-262.41 719.32,-269.4"/>
</g>
<!-- Refutable Description -->
<g id="node28" class="node">
<title>Refutable Description</title>
<polygon fill="none" stroke="black" points="1013,-498 867,-498 867,-462 1013,-462 1013,-498"/>
<text text-anchor="middle" x="940" y="-476.3" font-family="firacode" font-size="14.00">Refutable Description</text>
</g>
<!-- Dataflow Diagram&#45;&gt;Refutable Description -->
<g id="edge23" class="edge">
<title>Dataflow Diagram&#45;&gt;Refutable Description</title>
<path fill="none" stroke="black" d="M781.17,-390.16C800.92,-408.08 833.2,-435.29 865,-453 868.02,-454.68 871.16,-456.29 874.38,-457.83"/>
<polygon fill="black" stroke="black" points="873.02,-461.06 883.58,-461.98 875.9,-454.68 873.02,-461.06"/>
</g>
<!-- Top Down -->
<g id="node29" class="node">
<title>Top Down</title>
<polygon fill="none" stroke="black" points="978.5,-390 901.5,-390 901.5,-354 978.5,-354 978.5,-390"/>
<text text-anchor="middle" x="940" y="-368.3" font-family="firacode" font-size="14.00">Top Down</text>
</g>
<!-- Dataflow Diagram&#45;&gt;Top Down -->
<g id="edge24" class="edge">
<title>Dataflow Diagram&#45;&gt;Top Down</title>
<path fill="none" stroke="black" d="M823.91,-372C845.99,-372 870.52,-372 891.23,-372"/>
<polygon fill="black" stroke="black" points="891.38,-375.5 901.38,-372 891.38,-368.5 891.38,-375.5"/>
</g>
<!-- Domain Characteristic -->
<g id="node30" class="node">
<title>Domain Characteristic</title>
<polygon fill="none" stroke="black" points="1015,-236 865,-236 865,-200 1015,-200 1015,-236"/>
<text text-anchor="middle" x="940" y="-214.3" font-family="firacode" font-size="14.00">Domain Characteristic</text>
</g>
<!-- Domain&#45;&gt;Domain Characteristic -->
<g id="edge25" class="edge">
<title>Domain&#45;&gt;Domain Characteristic</title>
<path fill="none" stroke="black" d="M793.24,-211.41C810.45,-212.19 832.73,-213.2 854.66,-214.19"/>
<polygon fill="black" stroke="black" points="854.55,-217.69 864.7,-214.64 854.87,-210.69 854.55,-217.69"/>
</g>
<!-- Domain Interaction -->
<g id="node31" class="node">
<title>Domain Interaction</title>
<polygon fill="none" stroke="black" points="1005.5,-182 874.5,-182 874.5,-146 1005.5,-146 1005.5,-182"/>
<text text-anchor="middle" x="940" y="-160.3" font-family="firacode" font-size="14.00">Domain Interaction</text>
</g>
<!-- Domain&#45;&gt;Domain Interaction -->
<g id="edge26" class="edge">
<title>Domain&#45;&gt;Domain Interaction</title>
<path fill="none" stroke="black" d="M793.24,-201.88C813.04,-196.74 839.54,-189.85 864.52,-183.36"/>
<polygon fill="black" stroke="black" points="865.56,-186.7 874.36,-180.8 863.8,-179.93 865.56,-186.7"/>
</g>
<!-- Domain Characteristic&#45;&gt;Designation -->
<g id="edge33" class="edge">
<title>Domain Characteristic&#45;&gt;Designation</title>
<path fill="none" stroke="black" d="M966.59,-236.02C983.26,-249.24 1003.89,-268.71 1015,-291 1069,-399.35 999.5,-451.44 1051,-561 1059.53,-579.15 1074.23,-595.86 1087.73,-608.71"/>
<polygon fill="black" stroke="black" points="1085.74,-611.63 1095.49,-615.8 1090.47,-606.47 1085.74,-611.63"/>
</g>
<!-- Domain Characteristic&#45;&gt;Problem Context -->
<g id="edge34" class="edge">
<title>Domain Characteristic&#45;&gt;Problem Context</title>
<path fill="none" stroke="black" d="M1015.11,-214.77C1117.38,-210.3 1300.35,-202.32 1399.55,-197.99"/>
<polygon fill="black" stroke="black" points="1399.92,-201.47 1409.75,-197.54 1399.61,-194.48 1399.92,-201.47"/>
</g>
<!-- Machine -->
<g id="node40" class="node">
<title>Machine</title>
<polygon fill="none" stroke="black" points="1153.5,-190 1085.5,-190 1085.5,-154 1153.5,-154 1153.5,-190"/>
<text text-anchor="middle" x="1119.5" y="-168.3" font-family="firacode" font-size="14.00">Machine</text>
</g>
<!-- Domain Characteristic&#45;&gt;Machine -->
<g id="edge35" class="edge">
<title>Domain Characteristic&#45;&gt;Machine</title>
<path fill="none" stroke="black" d="M1010.64,-199.95C1032.48,-194.29 1055.93,-188.21 1075.37,-183.18"/>
<polygon fill="black" stroke="black" points="1076.34,-186.54 1085.15,-180.64 1074.59,-179.76 1076.34,-186.54"/>
</g>
<!-- Workpieces Frame -->
<g id="node41" class="node">
<title>Workpieces Frame</title>
<polygon fill="none" stroke="black" points="1185,-282 1054,-282 1054,-246 1185,-246 1185,-282"/>
<text text-anchor="middle" x="1119.5" y="-260.3" font-family="firacode" font-size="14.00">Workpieces Frame</text>
</g>
<!-- Domain Characteristic&#45;&gt;Workpieces Frame -->
<g id="edge36" class="edge">
<title>Domain Characteristic&#45;&gt;Workpieces Frame</title>
<path fill="none" stroke="black" d="M1010.64,-236.05C1021.69,-238.91 1033.14,-241.88 1044.29,-244.77"/>
<polygon fill="black" stroke="black" points="1043.42,-248.16 1053.98,-247.28 1045.18,-241.38 1043.42,-248.16"/>
</g>
<!-- Domain Interaction&#45;&gt;Application Domain -->
<g id="edge37" class="edge">
<title>Domain Interaction&#45;&gt;Application Domain</title>
<path fill="none" stroke="black" d="M1005.58,-147.26C1017.63,-144.14 1030.32,-140.85 1042.66,-137.65"/>
<polygon fill="black" stroke="black" points="1043.67,-141.01 1052.47,-135.11 1041.92,-134.23 1043.67,-141.01"/>
</g>
<!-- Domain Interaction&#45;&gt;Context Diagram -->
<g id="edge38" class="edge">
<title>Domain Interaction&#45;&gt;Context Diagram</title>
<path fill="none" stroke="black" d="M874.32,-153.39C821.51,-148.18 747.05,-149.05 693,-183 666.02,-199.95 681.16,-224.23 657,-245 655.67,-246.15 654.28,-247.25 652.85,-248.3"/>
<polygon fill="black" stroke="black" points="650.71,-245.52 644.22,-253.89 654.52,-251.39 650.71,-245.52"/>
</g>
<!-- Critical Reading -->
<g id="node32" class="node">
<title>Critical Reading</title>
<polygon fill="none" stroke="black" points="130.5,-425 18.5,-425 18.5,-389 130.5,-389 130.5,-425"/>
<text text-anchor="middle" x="74.5" y="-403.3" font-family="firacode" font-size="14.00">Critical Reading</text>
</g>
<!-- Dekker -->
<g id="node33" class="node">
<title>Dekker</title>
<polygon fill="none" stroke="black" points="104,-479 45,-479 45,-443 104,-443 104,-479"/>
<text text-anchor="middle" x="74.5" y="-457.3" font-family="firacode" font-size="14.00">Dekker</text>
</g>
<!-- Description -->
<g id="node34" class="node">
<title>Description</title>
<polygon fill="none" stroke="black" points="803,-779 719,-779 719,-743 803,-743 803,-779"/>
<text text-anchor="middle" x="761" y="-757.3" font-family="firacode" font-size="14.00">Description</text>
</g>
<!-- Description&#45;&gt;Definition -->
<g id="edge27" class="edge">
<title>Description&#45;&gt;Definition</title>
<path fill="none" stroke="black" d="M775.01,-779.14C792.86,-802.82 827.06,-844.17 865,-869 873.67,-874.67 883.69,-879.35 893.5,-883.13"/>
<polygon fill="black" stroke="black" points="892.58,-886.52 903.18,-886.61 894.95,-879.93 892.58,-886.52"/>
</g>
<!-- Description&#45;&gt;Refutable Description -->
<g id="edge28" class="edge">
<title>Description&#45;&gt;Refutable Description</title>
<path fill="none" stroke="black" d="M773.6,-742.9C788.2,-719.47 813.26,-677.01 829,-638 851.59,-582 824.08,-551.4 865,-507 865.76,-506.17 866.56,-505.37 867.37,-504.59"/>
<polygon fill="black" stroke="black" points="869.71,-507.2 875.33,-498.21 865.34,-501.73 869.71,-507.2"/>
</g>
<!-- Rough Sketch -->
<g id="node35" class="node">
<title>Rough Sketch</title>
<polygon fill="none" stroke="black" points="990.5,-698 889.5,-698 889.5,-662 990.5,-662 990.5,-698"/>
<text text-anchor="middle" x="940" y="-676.3" font-family="firacode" font-size="14.00">Rough Sketch</text>
</g>
<!-- Description&#45;&gt;Rough Sketch -->
<g id="edge29" class="edge">
<title>Description&#45;&gt;Rough Sketch</title>
<path fill="none" stroke="black" d="M793.93,-742.85C814,-731.8 840.63,-717.78 865,-707 869.73,-704.91 874.67,-702.85 879.66,-700.85"/>
<polygon fill="black" stroke="black" points="881.23,-704 889.28,-697.11 878.69,-697.48 881.23,-704"/>
</g>
<!-- Partial Description -->
<g id="node36" class="node">
<title>Partial Description</title>
<polygon fill="none" stroke="black" points="1003,-806 877,-806 877,-770 1003,-770 1003,-806"/>
<text text-anchor="middle" x="940" y="-784.3" font-family="firacode" font-size="14.00">Partial Description</text>
</g>
<!-- Description&#45;&gt;Partial Description -->
<g id="edge30" class="edge">
<title>Description&#45;&gt;Partial Description</title>
<path fill="none" stroke="black" d="M803.05,-767.26C821.92,-770.14 844.87,-773.64 866.5,-776.94"/>
<polygon fill="black" stroke="black" points="866.25,-780.44 876.66,-778.49 867.3,-773.52 866.25,-780.44"/>
</g>
<!-- Scope -->
<g id="node37" class="node">
<title>Scope</title>
<polygon fill="none" stroke="black" points="967.5,-752 912.5,-752 912.5,-716 967.5,-716 967.5,-752"/>
<text text-anchor="middle" x="940" y="-730.3" font-family="firacode" font-size="14.00">Scope</text>
</g>
<!-- Description&#45;&gt;Scope -->
<g id="edge31" class="edge">
<title>Description&#45;&gt;Scope</title>
<path fill="none" stroke="black" d="M803.05,-754.74C833.07,-750.16 873.42,-744 902.35,-739.59"/>
<polygon fill="black" stroke="black" points="903.1,-743.02 912.45,-738.05 902.04,-736.1 903.1,-743.02"/>
</g>
<!-- Span -->
<g id="node38" class="node">
<title>Span</title>
<polygon fill="none" stroke="black" points="967,-860 913,-860 913,-824 967,-824 967,-860"/>
<text text-anchor="middle" x="940" y="-838.3" font-family="firacode" font-size="14.00">Span</text>
</g>
<!-- Description&#45;&gt;Span -->
<g id="edge32" class="edge">
<title>Description&#45;&gt;Span</title>
<path fill="none" stroke="black" d="M793.93,-779.15C814,-790.2 840.63,-804.22 865,-815 877.34,-820.46 891.15,-825.71 903.47,-830.12"/>
<polygon fill="black" stroke="black" points="902.39,-833.45 912.98,-833.46 904.7,-826.84 902.39,-833.45"/>
</g>
<!-- Deskilling -->
<g id="node39" class="node">
<title>Deskilling</title>
<polygon fill="none" stroke="black" points="111.5,-533 37.5,-533 37.5,-497 111.5,-497 111.5,-533"/>
<text text-anchor="middle" x="74.5" y="-511.3" font-family="firacode" font-size="14.00">Deskilling</text>
</g>
<!-- Entity Relation Span -->
<g id="node42" class="node">
<title>Entity Relation Span</title>
<polygon fill="none" stroke="black" points="144,-587 5,-587 5,-551 144,-551 144,-587"/>
<text text-anchor="middle" x="74.5" y="-565.3" font-family="firacode" font-size="14.00">Entity Relation Span</text>
</g>
<!-- Span of Description -->
<g id="node43" class="node">
<title>Span of Description</title>
<polygon fill="none" stroke="black" points="326.5,-587 192.5,-587 192.5,-551 326.5,-551 326.5,-587"/>
<text text-anchor="middle" x="259.5" y="-565.3" font-family="firacode" font-size="14.00">Span of Description</text>
</g>
<!-- Entity Relation Span&#45;&gt;Span of Description -->
<g id="edge39" class="edge">
<title>Entity Relation Span&#45;&gt;Span of Description</title>
<path fill="none" stroke="black" d="M144.16,-569C156.65,-569 169.74,-569 182.42,-569"/>
<polygon fill="black" stroke="black" points="182.49,-572.5 192.49,-569 182.49,-565.5 182.49,-572.5"/>
</g>
<!-- Events and Intervals -->
<g id="node44" class="node">
<title>Events and Intervals</title>
<polygon fill="none" stroke="black" points="1009.5,-444 870.5,-444 870.5,-408 1009.5,-408 1009.5,-444"/>
<text text-anchor="middle" x="940" y="-422.3" font-family="firacode" font-size="14.00">Events and Intervals</text>
</g>
<!-- Individual -->
<g id="node45" class="node">
<title>Individual</title>
<polygon fill="none" stroke="black" points="1156.5,-471 1082.5,-471 1082.5,-435 1156.5,-435 1156.5,-471"/>
<text text-anchor="middle" x="1119.5" y="-449.3" font-family="firacode" font-size="14.00">Individual</text>
</g>
<!-- Events and Intervals&#45;&gt;Individual -->
<g id="edge40" class="edge">
<title>Events and Intervals&#45;&gt;Individual</title>
<path fill="none" stroke="black" d="M1009.63,-436.44C1030.63,-439.63 1053.22,-443.07 1072.35,-445.98"/>
<polygon fill="black" stroke="black" points="1071.89,-449.45 1082.3,-447.49 1072.94,-442.53 1071.89,-449.45"/>
</g>
<!-- Domain Phenomena -->
<g id="node46" class="node">
<title>Domain Phenomena</title>
<polygon fill="none" stroke="black" points="1365,-471 1224,-471 1224,-435 1365,-435 1365,-471"/>
<text text-anchor="middle" x="1294.5" y="-449.3" font-family="firacode" font-size="14.00">Domain Phenomena</text>
</g>
<!-- Individual&#45;&gt;Domain Phenomena -->
<g id="edge41" class="edge">
<title>Individual&#45;&gt;Domain Phenomena</title>
<path fill="none" stroke="black" d="M1156.77,-453C1173.38,-453 1193.78,-453 1213.7,-453"/>
<polygon fill="black" stroke="black" points="1213.73,-456.5 1223.73,-453 1213.73,-449.5 1213.73,-456.5"/>
</g>
<!-- Existence -->
<g id="node47" class="node">
<title>Existence</title>
<polygon fill="none" stroke="black" points="977.5,-552 902.5,-552 902.5,-516 977.5,-516 977.5,-552"/>
<text text-anchor="middle" x="940" y="-530.3" font-family="firacode" font-size="14.00">Existence</text>
</g>
<!-- Existence&#45;&gt;Designation -->
<g id="edge42" class="edge">
<title>Existence&#45;&gt;Designation</title>
<path fill="none" stroke="black" d="M977.58,-545.19C989.78,-549.48 1003.25,-554.85 1015,-561 1041.25,-574.74 1068.54,-594.24 1088.51,-609.63"/>
<polygon fill="black" stroke="black" points="1086.56,-612.55 1096.59,-615.94 1090.87,-607.03 1086.56,-612.55"/>
</g>
<!-- Existence&#45;&gt;Individual -->
<g id="edge43" class="edge">
<title>Existence&#45;&gt;Individual</title>
<path fill="none" stroke="black" d="M977.51,-521.75C989.58,-517.42 1002.99,-512.3 1015,-507 1036.04,-497.72 1058.75,-486.06 1077.53,-475.96"/>
<polygon fill="black" stroke="black" points="1079.29,-478.98 1086.4,-471.14 1075.95,-472.83 1079.29,-478.98"/>
</g>
<!-- Predicate Logic -->
<g id="node48" class="node">
<title>Predicate Logic</title>
<polygon fill="none" stroke="black" points="1174.5,-552 1064.5,-552 1064.5,-516 1174.5,-516 1174.5,-552"/>
<text text-anchor="middle" x="1119.5" y="-530.3" font-family="firacode" font-size="14.00">Predicate Logic</text>
</g>
<!-- Existence&#45;&gt;Predicate Logic -->
<g id="edge44" class="edge">
<title>Existence&#45;&gt;Predicate Logic</title>
<path fill="none" stroke="black" d="M977.78,-534C999.83,-534 1028.49,-534 1054.19,-534"/>
<polygon fill="black" stroke="black" points="1054.25,-537.5 1064.25,-534 1054.25,-530.5 1054.25,-537.5"/>
</g>
<!-- Frame Diagram -->
<g id="node49" class="node">
<title>Frame Diagram</title>
<polygon fill="none" stroke="black" points="482,-290 370,-290 370,-254 482,-254 482,-290"/>
<text text-anchor="middle" x="426" y="-268.3" font-family="firacode" font-size="14.00">Frame Diagram</text>
</g>
<!-- Frame Diagram&#45;&gt;Context Diagram -->
<g id="edge45" class="edge">
<title>Frame Diagram&#45;&gt;Context Diagram</title>
<path fill="none" stroke="black" d="M482.34,-272C493.68,-272 505.75,-272 517.51,-272"/>
<polygon fill="black" stroke="black" points="517.73,-275.5 527.73,-272 517.73,-268.5 517.73,-275.5"/>
</g>
<!-- Fudge Factor -->
<g id="node50" class="node">
<title>Fudge Factor</title>
<polygon fill="none" stroke="black" points="123,-82 26,-82 26,-46 123,-46 123,-82"/>
<text text-anchor="middle" x="74.5" y="-60.3" font-family="firacode" font-size="14.00">Fudge Factor</text>
</g>
<!-- Fudge Factor&#45;&gt;Requirement -->
<g id="edge46" class="edge">
<title>Fudge Factor&#45;&gt;Requirement</title>
<path fill="none" stroke="black" d="M123.27,-64C190.57,-64 317.15,-64 425,-64 425,-64 425,-64 1120.5,-64 1222.93,-64 1342.34,-64 1411.16,-64"/>
<polygon fill="black" stroke="black" points="1411.35,-67.5 1421.35,-64 1411.35,-60.5 1411.35,-67.5"/>
</g>
<!-- Simple IS Frame -->
<g id="node51" class="node">
<title>Simple IS Frame</title>
<polygon fill="none" stroke="black" points="319,-128 200,-128 200,-92 319,-92 319,-128"/>
<text text-anchor="middle" x="259.5" y="-106.3" font-family="firacode" font-size="14.00">Simple IS Frame</text>
</g>
<!-- Fudge Factor&#45;&gt;Simple IS Frame -->
<g id="edge47" class="edge">
<title>Fudge Factor&#45;&gt;Simple IS Frame</title>
<path fill="none" stroke="black" d="M123.1,-75.97C143.49,-81.09 167.69,-87.17 189.95,-92.77"/>
<polygon fill="black" stroke="black" points="189.13,-96.17 199.69,-95.22 190.84,-89.38 189.13,-96.17"/>
</g>
<!-- Simple Control Frame -->
<g id="node52" class="node">
<title>Simple Control Frame</title>
<polygon fill="none" stroke="black" points="334,-36 185,-36 185,0 334,0 334,-36"/>
<text text-anchor="middle" x="259.5" y="-14.3" font-family="firacode" font-size="14.00">Simple Control Frame</text>
</g>
<!-- Fudge Factor&#45;&gt;Simple Control Frame -->
<g id="edge48" class="edge">
<title>Fudge Factor&#45;&gt;Simple Control Frame</title>
<path fill="none" stroke="black" d="M123.1,-52.03C139.53,-47.9 158.43,-43.15 176.8,-38.54"/>
<polygon fill="black" stroke="black" points="177.79,-41.9 186.64,-36.06 176.08,-35.11 177.79,-41.9"/>
</g>
<!-- Graphic Notation -->
<g id="node53" class="node">
<title>Graphic Notation</title>
<polygon fill="none" stroke="black" points="134,-641 15,-641 15,-605 134,-605 134,-641"/>
<text text-anchor="middle" x="74.5" y="-619.3" font-family="firacode" font-size="14.00">Graphic Notation</text>
</g>
<!-- Hierarchical Structure -->
<g id="node54" class="node">
<title>Hierarchical Structure</title>
<polygon fill="none" stroke="black" points="147.5,-695 1.5,-695 1.5,-659 147.5,-659 147.5,-695"/>
<text text-anchor="middle" x="74.5" y="-673.3" font-family="firacode" font-size="14.00">Hierarchical Structure</text>
</g>
<!-- Identity -->
<g id="node55" class="node">
<title>Identity</title>
<polygon fill="none" stroke="black" points="104.5,-749 44.5,-749 44.5,-713 104.5,-713 104.5,-749"/>
<text text-anchor="middle" x="74.5" y="-727.3" font-family="firacode" font-size="14.00">Identity</text>
</g>
<!-- Implementation Bias -->
<g id="node56" class="node">
<title>Implementation Bias</title>
<polygon fill="none" stroke="black" points="144.5,-803 4.5,-803 4.5,-767 144.5,-767 144.5,-803"/>
<text text-anchor="middle" x="74.5" y="-781.3" font-family="firacode" font-size="14.00">Implementation Bias</text>
</g>
<!-- Specification -->
<g id="node57" class="node">
<title>Specification</title>
<polygon fill="none" stroke="black" points="306,-803 213,-803 213,-767 306,-767 306,-803"/>
<text text-anchor="middle" x="259.5" y="-781.3" font-family="firacode" font-size="14.00">Specification</text>
</g>
<!-- Implementation Bias&#45;&gt;Specification -->
<g id="edge49" class="edge">
<title>Implementation Bias&#45;&gt;Specification</title>
<path fill="none" stroke="black" d="M144.68,-785C163.81,-785 184.32,-785 202.59,-785"/>
<polygon fill="black" stroke="black" points="202.77,-788.5 212.77,-785 202.77,-781.5 202.77,-788.5"/>
</g>
<!-- Is -->
<g id="node58" class="node">
<title>Is</title>
<polygon fill="none" stroke="black" points="101.5,-857 47.5,-857 47.5,-821 101.5,-821 101.5,-857"/>
<text text-anchor="middle" x="74.5" y="-835.3" font-family="firacode" font-size="14.00">Is</text>
</g>
<!-- JSP Frame -->
<g id="node59" class="node">
<title>JSP Frame</title>
<polygon fill="none" stroke="black" points="302,-236 217,-236 217,-200 302,-200 302,-236"/>
<text text-anchor="middle" x="259.5" y="-214.3" font-family="firacode" font-size="14.00">JSP Frame</text>
</g>
<!-- JSP Frame&#45;&gt;Calendar -->
<g id="edge50" class="edge">
<title>JSP Frame&#45;&gt;Calendar</title>
<path fill="none" stroke="black" d="M302.01,-218C325.91,-218 355.95,-218 380.36,-218"/>
<polygon fill="black" stroke="black" points="380.45,-221.5 390.45,-218 380.45,-214.5 380.45,-221.5"/>
</g>
<!-- JSP Frame&#45;&gt;Composition -->
<g id="edge51" class="edge">
<title>JSP Frame&#45;&gt;Composition</title>
<path fill="none" stroke="black" d="M302.01,-204.37C322.65,-197.6 347.88,-189.32 370.1,-182.02"/>
<polygon fill="black" stroke="black" points="371.33,-185.3 379.74,-178.86 369.15,-178.65 371.33,-185.3"/>
</g>
<!-- JSP Frame&#45;&gt;Frame Diagram -->
<g id="edge52" class="edge">
<title>JSP Frame&#45;&gt;Frame Diagram</title>
<path fill="none" stroke="black" d="M302.01,-231.63C319.76,-237.45 340.9,-244.39 360.6,-250.86"/>
<polygon fill="black" stroke="black" points="359.54,-254.19 370.13,-253.99 361.72,-247.54 359.54,-254.19"/>
</g>
<!-- Misfit -->
<g id="node60" class="node">
<title>Misfit</title>
<polygon fill="none" stroke="black" points="101.5,-209 47.5,-209 47.5,-173 101.5,-173 101.5,-209"/>
<text text-anchor="middle" x="74.5" y="-187.3" font-family="firacode" font-size="14.00">Misfit</text>
</g>
<!-- JSP Frame&#45;&gt;Misfit -->
<g id="edge53" class="edge">
<title>JSP Frame&#45;&gt;Misfit</title>
<path fill="none" stroke="black" d="M216.77,-217.61C185.13,-214.33 142.08,-207.89 111.84,-201.87"/>
<polygon fill="black" stroke="black" points="112.22,-198.38 101.72,-199.77 110.8,-205.23 112.22,-198.38"/>
</g>
<!-- Misfit&#45;&gt;Simple IS Frame -->
<g id="edge54" class="edge">
<title>Misfit&#45;&gt;Simple IS Frame</title>
<path fill="none" stroke="black" d="M101.68,-177.11C123.64,-165.7 155.97,-149.45 185,-137 189.12,-135.23 193.39,-133.48 197.72,-131.75"/>
<polygon fill="black" stroke="black" points="199.18,-134.94 207.22,-128.04 196.63,-128.42 199.18,-134.94"/>
</g>
<!-- Misfit&#45;&gt;JSP Frame -->
<g id="edge55" class="edge">
<title>Misfit&#45;&gt;JSP Frame</title>
<path fill="none" stroke="black" d="M101.72,-189.97C129.06,-192.06 172.64,-198.08 206.92,-204.25"/>
<polygon fill="black" stroke="black" points="206.3,-207.69 216.77,-206.07 207.58,-200.81 206.3,-207.69"/>
</g>
<!-- Procrustes -->
<g id="node61" class="node">
<title>Procrustes</title>
<polygon fill="none" stroke="black" points="300,-182 219,-182 219,-146 300,-146 300,-182"/>
<text text-anchor="middle" x="259.5" y="-160.3" font-family="firacode" font-size="14.00">Procrustes</text>
</g>
<!-- Misfit&#45;&gt;Procrustes -->
<g id="edge56" class="edge">
<title>Misfit&#45;&gt;Procrustes</title>
<path fill="none" stroke="black" d="M101.72,-187.13C129.6,-183.02 174.37,-176.41 208.94,-171.31"/>
<polygon fill="black" stroke="black" points="209.47,-174.77 218.85,-169.85 208.45,-167.85 209.47,-174.77"/>
</g>
<!-- Logical Positivism -->
<g id="node62" class="node">
<title>Logical Positivism</title>
<polygon fill="none" stroke="black" points="823.5,-629 698.5,-629 698.5,-593 823.5,-593 823.5,-629"/>
<text text-anchor="middle" x="761" y="-607.3" font-family="firacode" font-size="14.00">Logical Positivism</text>
</g>
<!-- Logical Positivism&#45;&gt;Designation -->
<g id="edge57" class="edge">
<title>Logical Positivism&#45;&gt;Designation</title>
<path fill="none" stroke="black" d="M823.69,-614.98C891.84,-619.38 1000.47,-626.38 1065.1,-630.55"/>
<polygon fill="black" stroke="black" points="1065.27,-634.07 1075.47,-631.22 1065.72,-627.09 1065.27,-634.07"/>
</g>
<!-- Logical Positivism&#45;&gt;Refutable Description -->
<g id="edge58" class="edge">
<title>Logical Positivism&#45;&gt;Refutable Description</title>
<path fill="none" stroke="black" d="M775.79,-592.77C793.96,-569.88 827.99,-530.73 865,-507 867.43,-505.44 869.96,-503.96 872.56,-502.55"/>
<polygon fill="black" stroke="black" points="874.23,-505.62 881.61,-498.02 871.1,-499.36 874.23,-505.62"/>
</g>
<!-- Logical Positivism&#45;&gt;Rough Sketch -->
<g id="edge59" class="edge">
<title>Logical Positivism&#45;&gt;Rough Sketch</title>
<path fill="none" stroke="black" d="M808.5,-629.13C831.47,-638.08 859.35,-648.95 883.44,-658.34"/>
<polygon fill="black" stroke="black" points="882.22,-661.62 892.81,-661.99 884.76,-655.1 882.22,-661.62"/>
</g>
<!-- Phenomena -->
<g id="node63" class="node">
<title>Phenomena</title>
<polygon fill="none" stroke="black" points="985,-606 895,-606 895,-570 985,-570 985,-606"/>
<text text-anchor="middle" x="940" y="-584.3" font-family="firacode" font-size="14.00">Phenomena</text>
</g>
<!-- Logical Positivism&#45;&gt;Phenomena -->
<g id="edge60" class="edge">
<title>Logical Positivism&#45;&gt;Phenomena</title>
<path fill="none" stroke="black" d="M823.91,-602.96C843.76,-600.38 865.59,-597.54 884.85,-595.04"/>
<polygon fill="black" stroke="black" points="885.49,-598.48 894.96,-593.72 884.59,-591.54 885.49,-598.48"/>
</g>
<!-- Mathematics -->
<g id="node64" class="node">
<title>Mathematics</title>
<polygon fill="none" stroke="black" points="122,-911 27,-911 27,-875 122,-875 122,-911"/>
<text text-anchor="middle" x="74.5" y="-889.3" font-family="firacode" font-size="14.00">Mathematics</text>
</g>
</g>
</svg>
